<?xml version="1.0" standalone="no"?>
<!DOCTYPE svg PUBLIC "-//W3C//DTD SVG 20010904//EN"
 "http://www.w3.org/TR/2001/REC-SVG-20010904/DTD/svg10.dtd">
<svg version="1.0" xmlns="http://www.w3.org/2000/svg"
 width="120.000000pt" height="50.000000pt" viewBox="0 0 120.000000 50.000000"
 preserveAspectRatio="xMidYMid meet">

<g transform="translate(0.000000,50.000000) scale(0.100000,-0.100000)"
fill="#000000" stroke="none">
<path d="M0 250 l0 -250 600 0 600 0 0 250 0 250 -600 0 -600 0 0 -250z m300
177 c0 -30 -4 -35 -50 -54 -43 -18 -54 -29 -71 -67 -14 -33 -18 -56 -13 -82 8
-44 61 -100 103 -109 27 -6 31 -11 31 -41 0 -19 -3 -34 -6 -34 -11 0 -264 204
-262 211 4 10 251 207 261 208 4 1 7 -14 7 -32z m250 -67 c0 -19 -34 -191 -46
-232 -4 -13 -16 -18 -46 -18 -37 0 -40 2 -35 23 3 12 15 67 27 122 28 132 24
125 65 125 28 0 35 -4 35 -20z m-194 -6 c59 -28 81 -102 49 -164 -35 -68 -132
-78 -189 -21 -26 27 -31 39 -31 80 0 95 84 146 171 105z m508 -10 c9 -24 -12
-44 -45 -44 -24 0 -29 4 -29 23 0 30 7 37 41 37 16 0 29 -7 33 -16z m132 -21
l15 -38 31 38 c16 20 39 37 49 37 27 0 25 -6 -22 -62 l-42 -49 27 -65 c14 -35
26 -67 26 -69 0 -3 -22 -5 -48 -5 -46 0 -49 2 -61 35 -7 19 -15 35 -19 35 -4
0 -18 -16 -32 -35 -16 -22 -33 -35 -49 -35 -26 0 -27 -4 31 70 l36 45 -28 68
-29 67 49 0 c48 0 50 -1 66 -37z m-355 -75 c1 -18 4 -43 8 -56 5 -21 9 -17 33
32 20 40 33 56 48 56 11 0 20 -2 20 -4 0 -13 -104 -186 -122 -204 -30 -27
-108 -42 -108 -20 0 9 13 18 31 22 31 6 31 7 25 47 -4 22 -9 67 -13 100 l-6
59 42 0 c39 0 41 -1 42 -32z m203 -30 c-8 -35 -16 -73 -19 -85 -5 -19 -12 -23
-46 -23 -38 0 -41 2 -35 22 3 13 11 51 18 86 l11 62 43 0 42 0 -14 -62z"/>
<path d="M242 307 c-43 -45 -21 -118 41 -140 51 -18 116 46 102 100 -15 63
-100 86 -143 40z"/>
</g>
</svg>
